<svg enable-background="new 0 0 79.28 93.83" viewBox="0 0 79.28 93.83" xmlns="http://www.w3.org/2000/svg"><g fill="#00b9ed"><path d="m59.11 49.53c-9.68-.08-16.75-7.41-18.75-15.45-.96-3.88-.58-7.81-.6-11.72-.01-3.22-.59-6.28-1.72-9.27-3.65-9.61-14.61-14.78-23.96-11.07-8.22 3.26-12.57 10.41-12.72 19.24-.26 15.83-.07 31.67-.09 47.51 0 2 .15 3.98.46 5.96 1.48 9.47 9.64 16.52 19.19 16.57 2.41.01 4.82.06 7.23.09.09-.08.17-.16.25-.25 10.33.03 20.66.13 30.98.04 6.11-.05 10.89-2.79 14.46-7.79 1.23-1.73 2.04-3.65 3.1-5.46.04-.25.07-.5.11-.75.36-1.48.71-2.95 1.07-4.43-.19-.48-.48-.96.15-1.34-.16-1.55-.26-3.11-.5-4.64-1.42-8.97-8.46-17.16-18.66-17.24z"/><path d="m78.25 71.42v.05c.01-.01.01-.06 0-.05.01-.01.01 0 0 0z"/></g></svg>