<svg enable-background="new 0 0 84.17 74.64" viewBox="0 0 84.17 74.64" xmlns="http://www.w3.org/2000/svg"><path d="m82.54 54.46c-1.1 5.24-5.32 9.9-10.6 10.77-6.59 1.09-12.96-3.51-19.63-3.17-5.87.3-10.78 4.29-15.66 7.56s-11.09 6.02-16.47 3.65c-4.89-2.16-7.22-7.84-7.8-13.15-.57-5.31.13-10.74-.9-15.98-.98-4.96-3.45-9.47-5.76-13.97s-4.53-9.19-4.92-14.23c-.4-5.04 1.4-10.55 5.65-13.3 4.08-2.64 9.56-2.19 14-.18s8.1 5.35 11.83 8.49c9.29 7.81 19.73 16.3 31.77 19.01 10.69 2.4 20.96 12.71 18.49 24.5z" fill="#fac814"/></svg>