<svg enable-background="new 0 0 50.7 125.47" viewBox="0 0 50.7 125.47" xmlns="http://www.w3.org/2000/svg"><path d="m48.24 66.5c-1.03 1.35-1.56 2.99-2.67 4.3-3.57 4.21-8.17 6-13.6 6.08-6.79.1-12.8 4.41-15.02 10.81-.64 1.83-.84 3.73-.84 5.66-.03 10.71-.07 21.42-.11 32.12-5.33 0-10.66 0-16 0 0-41.05 0-82.09 0-123.36 2.1 1.05 3.82 2.33 5.38 3.82.63.93 1.72 1.31 2.48 2.14 5.58 6.08 8.49 13.19 8.56 21.44.02 2.7.6 5.24 2.04 7.55.95 1.92 2.36 3.44 4.03 4.75 3.35 2.64 7.25 3.34 11.4 3.62 6.51.44 11.18 3.77 13.95 9.7.6 2.29 1.28 4.57 1.3 6.97-.02.17-.05.34-.07.51-.24 1-.48 2.01-.73 3.01.04.31-.36.58-.11.92z" fill="#00b9ed"/></svg>