<svg enable-background="new 0 0 81.04 86.63" viewBox="0 0 81.04 86.63" xmlns="http://www.w3.org/2000/svg"><path d="m80.97 68.2c0-5.01.01-10.01.01-15.02-.01-9.39-.02-18.77-.03-28.16 0-3.05-.01-6.11 0-9.16 0-.34.07-.67.1-1.01-.49-1.87-1.04-3.73-1.06-5.69.02-.14.04-.28.06-.41-1.3-3.02-3.22-5.5-6.18-7.07-2.56-1.35-5.33-2.06-8.15-1.49-2.3.46-4.53 1.21-6.5 2.81-2.55 2.06-4.09 4.53-4.85 7.63-.47 1.94-.41 3.99-1.26 5.84-.04.05-.09.1-.14.14-1.52 3.16-4.28 4.58-7.49 5.39-3.12.78-6.3.48-9.46.52-2.56.03-4.94.81-7.05 2.08-5.28 3.17-7.45 9.32-5.72 15.54 1.5 5.36 6.98 9.36 12.87 9.36 3.17 0 6.33 0 9.5-.01 1.02 0 1.89.29 2.34 1.29.8 1.75-.33 3.25-2.46 3.26-7.29.03-14.58 0-21.86.06-6.58.05-12.2 2.53-16.48 7.46-6.18 7.11-7.36 15.21-3.93 23.99.33.84.77 1.08 1.67 1.08 16.03-.03 32.05-.02 48.08-.02.34 0 .68-.03 1.03-.05 8.98 0 17.96.01 26.94.01 0-5.72 0-11.44.01-17.15 0-.38.06-.76.09-1.13-.02-.01-.08-.09-.08-.09z" fill="#fbc80c"/></svg>