<svg enable-background="new 0 0 496.904 496.904" height="512" viewBox="0 0 496.904 496.904" width="512" xmlns="http://www.w3.org/2000/svg"><path d="m62.673 230.287-2.656 76.797 13.37 4.359 32.96 14.16c15.66 6.73 31.84 11.86 48.28 15.38l8.51-8.784v-68.344z" fill="#e2dee2"/><path d="m98.386 322.184v-79.964l-35.713-11.933-2.657 76.797 13.37 4.359z" fill="#cbc4cc"/><path d="m53.979 165.082v69.31l19.408 11.941 32.96 14.16c15.66 6.73 31.84 11.86 48.28 15.39l8.51-17.824 1.449-56.994z" fill="#7a6d79"/><path d="m400.517 186.203-13.482-14.108-56.354 5.028-31.844 11.732 5.028 83.169 91.34-10.056 5.312-10.645 24.142-7.982v-35.131z" fill="#e2dee2"/><path d="m98.386 257.074v-77.545l-44.407-14.447v69.311l19.407 11.94z" fill="#685e68"/><path d="m56.27 104.013-1.124 61.45 18.24 15.761 32.96 14.16c15.66 6.73 31.84 11.86 48.28 15.39l8.51-7.848 3.924-70.705z" fill="#e2dee2"/><path d="m177.093 133.366-22.467 12.298v65.109l11.466 20.903h90.819v-98.31z" fill="#7a6d79"/><path d="m471.647 70.104c-23.09-8.05-47.04-12.75-71.13-14.11l-21.107 16.158v36.754l21.107 12.198 11.632 14.66 54.36 9.9 7.608-9.9v-62.16c-.001-1.57-.991-2.98-2.47-3.5z" fill="#7a6d79"/><path d="m236.587 215.143c-27.35 2.87-55.02 1.41-81.96-4.37v65.11l16.522 26.67h59.021l6.417-22.3 21.469-14.57v-26.172z" fill="#e2dee2"/><path d="m310.161 182.521-62.035 16.999-11.539 15.623v65.11l21.468 23.907 53.163-23.907 7.338-20.509v-65.111z" fill="#7a6d79"/><path d="m318.556 129.523-11.925-8.84-47.744 6.972-22.3 22.378v65.11c20.66-2.17 41.14-6.82 61-13.96 6.92-2.49 13.91-4.67 20.97-6.55l13.794-15.485v-36.57z" fill="#e2dee2"/><path d="m318.556 64.414c-7.06 1.88-14.05 4.06-20.97 6.55-19.85 7.14-40.34 11.8-61 13.97l-16.071 19.079v38.568l16.071 7.453c20.66-2.17 41.14-6.82 61-13.96 6.92-2.49 13.91-4.67 20.97-6.55l17.999-15.569v-32.469z" fill="#7a6d79"/><path d="m98.386 191.964v-77.228l-42.116-10.723-1.124 61.449 18.24 15.762z" fill="#cbc4cc"/><path d="m154.626 80.563c-16.44-3.53-32.61-8.66-48.28-15.39l-32.96-14.16-11.154-2.313v51.677l11.155 15.736 32.96 14.17c15.66 6.73 31.84 11.86 48.28 15.38l15.588-5.488v-39.148z" fill="#7a6d79"/><path d="m98.386 126.861v-65.107l-25-10.741-11.154-2.313v51.677l11.154 15.737z" fill="#685e68"/><path d="m73.386 10.524v479.083c0 4.03-3.267 7.297-7.297 7.297h-21.885c-4.03 0-7.297-3.267-7.297-7.297v-479.083z" fill="#f3f0f3"/><path d="m71.242 32.527h-32.192c-8.982 0-16.263-7.281-16.263-16.263 0-8.983 7.281-16.264 16.263-16.264h32.192c8.982 0 16.263 7.281 16.263 16.263.001 8.982-7.281 16.264-16.263 16.264z" fill="#cbc4cc"/><path d="m51.505 16.263c0-8.982 7.281-16.263 16.263-16.263h-28.718c-8.982 0-16.263 7.281-16.263 16.263s7.281 16.263 16.263 16.263h28.718c-8.982.001-16.263-7.281-16.263-16.263z" fill="#b5adb6"/><g fill="#e2dee2"><path d="m236.586 84.934v65.1c-27.35 2.88-55.02 1.41-81.96-4.37v-65.1c18.01 3.86 36.34 5.8 54.68 5.8 9.1 0 18.21-.48 27.28-1.43z"/><path d="m318.556 64.414v65.11l16.263 20.51h59.076l6.622-28.93v-65.11c-27.481-1.551-55.151 1.25-81.961 8.42z"/><path d="m473.236 135.763c-23.59-8.39-48.08-13.28-72.72-14.66l-12.114 14.154v68.754l79.332 9.186 6.382-12.624v-64.81z"/></g><g fill="#7a6d79"><path d="m400.516 121.104v65.1c-4.89-.27-9.77-.41-14.66-.41-22.63 0-45.26 2.94-67.3 8.84v-65.11c22.04-5.9 44.67-8.84 67.29-8.84 4.89 0 9.78.14 14.67.42z"/><path d="m472.407 200.573c-23.32-8.21-47.54-13-71.89-14.37v65.12l20.591 27.442 39.721 3.972 13.288-17.054v-65.11z"/><path d="m236.587 280.253c-27.35 2.87-55.02 1.41-81.96-4.37v65.1c26.94 5.79 54.61 7.25 81.96 4.38l16.485-14.238v-28.572z"/></g><path d="m337.926 275.883-19.37-16.14c-7.06 1.88-14.05 4.06-20.97 6.55-19.86 7.14-40.34 11.79-61 13.96v65.11c20.66-2.17 41.14-6.82 61-13.96 6.92-2.49 13.91-4.68 20.97-6.56l21.175-13.507z" fill="#e2dee2"/><path d="m424.659 273.094-24.143-21.771c-4.89-.28-9.78-.42-14.68-.42-22.62 0-45.24 2.94-67.28 8.84v65.1c22.04-5.89 44.65-8.83 67.27-8.83 4.9 0 9.8.14 14.69.41l25.36-10.832z" fill="#7a6d79"/><path d="m474.116 265.684v60.54c0 2.51-2.47 4.3-4.85 3.5-22.36-7.55-45.49-11.98-68.75-13.3v-65.1c24.36 1.37 48.56 6.16 71.89 14.36z" fill="#e2dee2"/></svg>