<svg enable-background="new 0 0 246.64 252.26" viewBox="0 0 246.64 252.26" xmlns="http://www.w3.org/2000/svg"><g fill="#253e8e"><path d="m6.02 163.03c0-4.11 3.32-7.43 7.43-7.43s7.43 3.32 7.43 7.43v.59c3.42-4.4 7.92-8.41 15.45-8.41 6.84 0 12.02 3.03 14.76 8.31 4.59-5.38 10.07-8.31 17.21-8.31 11.05 0 17.7 6.65 17.7 19.26v27.28c0 4.11-3.32 7.43-7.43 7.43s-7.43-3.32-7.43-7.43v-22.39c0-7.04-3.13-10.66-8.7-10.66s-8.99 3.62-8.99 10.66v22.39c0 4.11-3.32 7.43-7.43 7.43s-7.43-3.32-7.43-7.43v-22.39c0-7.04-3.13-10.66-8.7-10.66s-8.99 3.62-8.99 10.66v22.39c0 4.11-3.32 7.43-7.43 7.43s-7.43-3.32-7.43-7.43v-38.72z"/><path d="m96.35 182.68v-.2c0-15.06 12.12-27.28 28.45-27.28 16.23 0 28.25 12.02 28.25 27.08v.2c0 15.06-12.12 27.28-28.45 27.28-16.22 0-28.25-12.03-28.25-27.08zm42.04 0v-.2c0-7.72-5.57-14.47-13.78-14.47-8.51 0-13.59 6.55-13.59 14.27v.2c0 7.72 5.57 14.47 13.78 14.47 8.51 0 13.59-6.55 13.59-14.27z"/><path d="m184.54 209.66h-.78c-4.01 0-6.75-2.54-8.41-6.45l-16.03-37.05c-.39-.98-.78-2.25-.78-3.62 0-3.52 3.23-6.94 7.23-6.94s6.16 2.25 7.23 5.28l11.24 30.4 11.44-30.6c.98-2.54 3.03-5.08 6.94-5.08s7.14 3.03 7.14 7.04c0 1.27-.49 2.83-.78 3.52l-16.03 37.05c-1.67 3.81-4.41 6.45-8.41 6.45z"/><path d="m219.34 143.67c0-4.3 3.62-6.94 8.31-6.94s8.31 2.64 8.31 6.94v.2c0 4.3-3.62 7.04-8.31 7.04s-8.31-2.74-8.31-7.04zm.88 19.36c0-4.11 3.32-7.43 7.43-7.43s7.43 3.32 7.43 7.43v38.71c0 4.11-3.32 7.43-7.43 7.43s-7.43-3.32-7.43-7.43z"/><path d="m98.36 242.41v-12.42h-.24c-1.76 0-3.18-1.42-3.18-3.18s1.42-3.18 3.18-3.18h.24v-3.28c0-2.05 1.66-3.71 3.72-3.71s3.72 1.66 3.72 3.71v3.28h3.28c1.76 0 3.18 1.42 3.18 3.18s-1.42 3.18-3.18 3.18h-3.28v11.2c0 1.71.73 2.54 2.4 2.54.24 0 .73-.05.88-.05 1.66 0 3.08 1.37 3.08 3.08 0 1.32-.88 2.4-1.91 2.79-1.37.54-2.64.73-4.25.73-4.56 0-7.64-1.81-7.64-7.87z"/><path d="m117.43 227.06c0-2.05 1.66-3.72 3.72-3.72s3.72 1.66 3.72 3.72v1.17c1.08-2.54 2.84-4.89 5.04-4.89 2.3 0 3.62 1.52 3.62 3.62 0 1.96-1.27 3.13-2.79 3.47-3.76.88-5.87 3.76-5.87 9.04v6.94c0 2.05-1.66 3.71-3.72 3.71s-3.72-1.66-3.72-3.71z"/><path d="m135.85 236.88v-.1c0-7.53 6.06-13.64 14.23-13.64 8.12 0 14.13 6.01 14.13 13.54v.1c0 7.53-6.06 13.64-14.23 13.64-8.11.01-14.13-6.01-14.13-13.54zm21.03 0v-.1c0-3.86-2.79-7.24-6.89-7.24-4.25 0-6.8 3.28-6.8 7.14v.1c0 3.86 2.79 7.24 6.89 7.24 4.25 0 6.8-3.27 6.8-7.14z"/><path d="m169.58 227.06c0-2.05 1.66-3.72 3.72-3.72s3.72 1.66 3.72 3.72v.29c1.71-2.2 3.91-4.2 7.68-4.2 5.62 0 8.9 3.72 8.9 9.73v13.54c0 2.05-1.66 3.71-3.72 3.71-2.05 0-3.72-1.66-3.72-3.71v-11.2c0-3.52-1.66-5.33-4.5-5.33s-4.64 1.81-4.64 5.33v11.2c0 2.05-1.66 3.71-3.72 3.71s-3.72-1.66-3.72-3.71z"/><path d="m199.94 217.38c0-2.15 1.81-3.47 4.16-3.47s4.16 1.32 4.16 3.47v.1c0 2.15-1.81 3.52-4.16 3.52s-4.16-1.37-4.16-3.52zm.44 9.68c0-2.05 1.66-3.72 3.72-3.72s3.72 1.66 3.72 3.72v19.36c0 2.05-1.66 3.71-3.72 3.71s-3.72-1.66-3.72-3.71z"/><path d="m213.23 242.31v-.1c0-5.72 4.35-8.36 10.56-8.36 2.64 0 4.55.44 6.4 1.08v-.44c0-3.08-1.91-4.79-5.62-4.79-2.05 0-3.72.29-5.13.73-.44.15-.73.2-1.08.2-1.71 0-3.08-1.32-3.08-3.03 0-1.32.83-2.45 2-2.88 2.35-.88 4.89-1.37 8.36-1.37 4.06 0 6.99 1.08 8.85 2.93 1.96 1.96 2.84 4.84 2.84 8.36v11.93c0 2-1.61 3.57-3.62 3.57-2.15 0-3.57-1.52-3.57-3.08v-.06c-1.81 2-4.3 3.33-7.92 3.33-4.93 0-8.99-2.84-8.99-8.02zm17.07-1.71v-1.32c-1.27-.59-2.93-.98-4.74-.98-3.18 0-5.13 1.27-5.13 3.62v.1c0 2 1.66 3.18 4.06 3.18 3.46-.01 5.81-1.91 5.81-4.6z"/><path d="m157.3 102.38c-32.14 33.73-43.19 33.73-75.53.08-2.81 3.4-5.57 6.76-8.35 10.09-13.57 16.22-37.75 19.16-54.89 6.68-16.66-12.12-21.98-36.47-9.8-53.45 13.12-18.29 27.39-35.9 42.51-52.59 14.46-15.96 37.93-14.48 53 1.88 5.13 5.57 9.73 11.63 15.28 18.32 4.71-5.66 8.98-10.98 13.46-16.11 17.94-20.57 42.28-20.32 59.53.68 11.5 14 22.9 28.07 34.15 42.26 15.13 19.1 13.17 43.09-4.51 57.75-17.21 14.26-42.09 11.28-57.61-6.94-2.26-2.62-4.46-5.31-7.24-8.65zm42.94-53.06c-7.14-8.76-13.21-16.87-19.99-24.35-10.94-12.08-24.35-12.18-35.38-.07-7.91 8.69-14.68 18.4-22.48 27.2-10.79 12.18-18.3 27.58-34.62 34.86 4.98 6.13 9.48 11.87 14.2 17.42 10.5 12.37 25.55 12.15 35.82-.5 9.02-11.11 18.23-22.09 26.84-33.51 8.76-11.61 19.05-20.3 35.61-21.05zm-127.01 41.72c-2.51-3.18-4.69-5.92-6.85-8.67-9.91-12.64-9.92-23.69.03-36.09 3.38-4.21 6.89-8.33 10.29-12.53 3.86-4.77 8.56-9.95 2.23-15.62-5.74-5.15-11.65-1.98-15.92 2.64-15.52 16.82-30.01 34.58-43.24 53.23-7.53 10.62-4.11 25.42 5.9 33.36 10.71 8.5 25.08 8.16 34.65-1.3 4.72-4.66 8.7-10.07 12.91-15.02zm92.92-.31c4.85 6.46 8.95 12.94 15.08 17.57 11.33 8.54 27.59 6.06 36.44-5.28 8.07-10.34 6.88-26.89-2.48-34.37-11.11-8.88-24.87-6.99-35.18 5.02-4.72 5.49-9.15 11.23-13.86 17.06zm-69.3-63.2c-5.27 11.64-13.7 19.48-20.57 28.48-3.7 4.85-6.16 10.35-.94 15.26 5.8 5.45 11.57 1.95 15.72-2.64 6.91-7.64 13.06-15.96 19.57-24.05-4.73-5.85-8.89-11-13.78-17.05z"/></g><path d="m200.24 49.32c-16.56.75-26.85 9.44-35.61 21.06-8.61 11.42-17.82 22.4-26.84 33.51-10.27 12.65-25.32 12.87-35.82.5-4.71-5.55-9.21-11.29-14.2-17.42 16.32-7.28 23.83-22.69 34.62-34.86 7.8-8.8 14.57-18.51 22.48-27.2 11.03-12.11 24.44-12.01 35.38.07 6.78 7.47 12.85 15.58 19.99 24.34z" fill="#fdca09"/><path d="m73.23 91.04c-4.22 4.95-8.2 10.36-12.92 15.02-9.58 9.46-23.95 9.8-34.65 1.3-10-7.94-13.43-22.74-5.9-33.36 13.24-18.65 27.73-36.41 43.26-53.24 4.27-4.62 10.18-7.79 15.92-2.64 6.32 5.67 1.62 10.85-2.23 15.62-3.4 4.2-6.91 8.31-10.29 12.53-9.95 12.4-9.94 23.45-.03 36.09 2.16 2.76 4.33 5.5 6.84 8.68z" fill="#00b377"/><path d="m166.15 90.73c4.72-5.83 9.14-11.57 13.86-17.06 10.32-12.01 24.08-13.91 35.18-5.02 9.36 7.48 10.55 24.03 2.48 34.37-8.85 11.34-25.11 13.82-36.44 5.28-6.13-4.63-10.23-11.11-15.08-17.57z" fill="#f1665f"/><path d="m96.85 27.53c4.89 6.05 9.05 11.2 13.79 17.06-6.51 8.09-12.66 16.41-19.57 24.05-4.15 4.58-9.93 8.08-15.72 2.64-5.22-4.91-2.77-10.41.94-15.26 6.86-9.01 15.29-16.84 20.56-28.49z" fill="#00b9ed"/><path d="m157.99 103.54c-32.73 34.45-43.97 34.45-76.9.08-2.86 3.47-5.67 6.9-8.5 10.3-13.82 16.57-38.43 19.57-55.89 6.82-16.96-12.39-22.38-37.26-9.98-54.6 13.35-18.67 27.88-36.66 43.27-53.7 14.73-16.3 38.62-14.79 53.96 1.92 5.23 5.69 9.91 11.88 15.56 18.71 4.8-5.78 9.14-11.21 13.7-16.46 18.26-21.01 43.05-20.75 60.61.7 11.7 14.3 23.32 28.67 34.77 43.17 15.41 19.52 13.41 44.02-4.59 58.99-17.52 14.57-42.86 11.52-58.66-7.08-2.29-2.7-4.52-5.44-7.35-8.85zm43.72-54.2c-7.27-8.95-13.45-17.23-20.35-24.87-11.13-12.34-24.79-12.44-36.02-.07-8.05 8.87-14.95 18.8-22.89 27.78-10.99 12.44-18.64 28.17-35.25 35.61 5.08 6.26 9.65 12.12 14.45 17.8 10.69 12.64 26.01 12.41 36.47-.51 9.19-11.35 18.56-22.56 27.33-34.23 8.92-11.87 19.4-20.74 36.26-21.51zm-129.32 42.61c-2.56-3.25-4.77-6.04-6.97-8.86-10.09-12.92-10.1-24.2.03-36.87 3.44-4.31 7.02-8.5 10.47-12.8 3.93-4.87 8.71-10.16 2.28-15.96-5.84-5.26-11.86-2.02-16.21 2.7-15.81 17.19-30.56 35.34-44.04 54.39-7.67 10.85-4.18 25.96 6.01 34.07 10.9 8.68 25.53 8.34 35.29-1.33 4.8-4.76 8.85-10.28 13.14-15.34zm94.61-.32c4.94 6.6 9.11 13.22 15.36 17.95 11.53 8.72 28.09 6.19 37.1-5.39 8.22-10.57 7-27.47-2.52-35.11-11.31-9.07-25.32-7.14-35.82 5.13-4.82 5.61-9.32 11.47-14.12 17.42zm-70.56-64.55c-5.37 11.89-13.95 19.9-20.94 29.09-3.77 4.95-6.27 10.58-.95 15.59 5.9 5.56 11.78 1.99 16.01-2.69 7.04-7.8 13.3-16.31 19.92-24.56-4.82-5.99-9.06-11.25-14.04-17.43z" fill="#fff"/><path d="m201.71 49.34c-16.86.77-27.33 9.64-36.26 21.51-8.77 11.67-18.15 22.88-27.33 34.23-10.46 12.92-25.78 13.14-36.47.51-4.8-5.67-9.38-11.53-14.45-17.8 16.62-7.44 24.26-23.17 35.25-35.61 7.94-8.99 14.83-18.91 22.89-27.78 11.23-12.37 24.89-12.27 36.02.07 6.89 7.64 13.08 15.92 20.35 24.87z" fill="#fdca09"/><path d="m72.39 91.95c-4.29 5.06-8.35 10.58-13.15 15.35-9.75 9.67-24.38 10.01-35.29 1.33-10.19-8.11-13.68-23.23-6.01-34.07 13.47-19.05 28.23-37.2 44.04-54.38 4.34-4.72 10.37-7.96 16.21-2.7 6.44 5.79 1.65 11.08-2.28 15.96-3.46 4.29-7.03 8.49-10.47 12.8-10.13 12.66-10.12 23.95-.03 36.87 2.21 2.79 4.43 5.59 6.98 8.84z" fill="#00b377"/><path d="m167 91.63c4.8-5.95 9.31-11.81 14.11-17.42 10.5-12.27 24.51-14.21 35.82-5.13 9.53 7.64 10.74 24.54 2.52 35.11-9.01 11.59-25.57 14.12-37.1 5.39-6.24-4.73-10.42-11.35-15.35-17.95z" fill="#f1665f"/><path d="m96.44 27.08c4.98 6.18 9.21 11.44 14.04 17.43-6.63 8.26-12.89 16.76-19.92 24.56-4.22 4.68-10.11 8.25-16.01 2.69-5.32-5.01-2.82-10.63.95-15.59 6.99-9.19 15.57-17.19 20.94-29.09z" fill="#00b9ed"/></svg>