<svg height="179pt" viewBox="0 0 56 179" width="56pt" xmlns="http://www.w3.org/2000/svg" xmlns:xlink="http://www.w3.org/1999/xlink"><clipPath id="a"><path d="m10.105469 105.792969 5.328125 68.089843c.183594 2.378907 2.203125 4.210938 4.589844 4.210938h15.25c2.386718 0 4.410156-1.832031 4.59375-4.210938l5.328124-68.089843 5.878907-6.953125c2.753906-3.296875 4.40625-7.503906 4.40625-11.898438v-36.605468c0-1.648438-.734375-3.296876-2.019531-4.210938-6.980469-5.855469-14.699219-9.519531-16.167969-10.433594-.183594 0-.367188-.183594-.367188-.367187v-4.757813c.734375-1.464844 1.101563-2.929687 1.285157-4.390625.183593.179688.367187.179688.550781.179688.554687 0 1.472656-.730469 2.390625-4.023438.917968-3.296875.367187-4.394531-.367188-4.761719 2.570313-12.628906-3.308594-12.996093-3.308594-12.996093s-.917968-1.828125-3.304687-3.109375c-1.472656-.734375-3.308594-1.464844-5.695313-1.464844-.367187 0-.734374 0-1.101562 0-.921875 0-1.839844.183594-2.757812.550781-1.101563.363281-2.019532.914063-2.9375 1.460938-1.472657.917969-2.390626 1.648437-3.308594 2.746093-1.46875 1.464844-2.753906 3.296876-3.304688 5.859376-.554687 2.011718-.554687 4.207031.367188 6.40625h-.183594c-1.105469 0-2.023438.730468-.921875 4.757812.921875 3.113281 1.65625 4.027344 2.390625 4.027344.183594 1.828125.917969 3.660156 1.835938 5.492187v4.023438c0 .183593-.183594.367187-.367188.367187-1.46875.734375-9.183594 4.578125-16.167969 10.433594-1.285156 1.097656-2.019531 2.5625-2.019531 4.210938v36.789062c0 4.390625 1.46875 8.417969 4.226562 11.898438zm0 0"/></clipPath><g clip-path="url(#a)"><path d="m0 0h56v179h-56z" fill="#d8d9df" fill-opacity=".2309"/></g></svg>