<svg enable-background="new 0 0 400.43 400.43" viewBox="0 0 400.43 400.43" xmlns="http://www.w3.org/2000/svg"><path d="m400.43 154.843c0 15-12.16 27.17-27.17 27.17h-134c7.5 0 14.3 3.04 19.22 7.96.86.86 1.66 1.77 2.39 2.74 3.5 4.57 5.57 10.28 5.57 16.48 0 15-12.17 27.17-27.18 27.17h-18.75c7.51 0 14.3 3.04 19.22 7.96s7.96 11.72 7.96 19.22c0 15.01-12.17 27.17-27.18 27.17l-12.77.01c12.94 0 23.86 10.21 24.06 23.15.11 6.65-2.55 12.67-6.89 17.02-4.25 4.25-10.14 6.89-16.64 6.89h-118.9c-6.25 0-12.48-.44-18.65-1.33-6.17-.88-12.28-2.21-18.27-3.96-8.52-2.49-17.19-4.37-25.96-5.62-8.76-1.25-17.61-1.88-26.49-1.88v-181.26h27.88c4.51 0 8.8-1.3 12.45-3.62 3.66-2.32 6.67-5.66 8.59-9.74 1.85-3.93 5.02-9.05 8.19-13.82 5.9-8.89 14.15-15.98 23.81-20.51l64.94-30.43c11.11-5.22 24.24-3.45 33.57 4.52l12.17 10.39c7.06 6.03 16.36 8.76 25.54 7.51 1.1-.15 2.19-.23 3.26-.23 12.89 0 23.71 10.48 23.71 23.76 0 1.83-.13 3.63-.37 5.39-.51 3.76-1.55 7.35-3.04 10.7h132.56c7.51 0 14.3 3.04 19.22 7.97 4.91 4.92 7.95 11.72 7.95 19.22z" fill="#fcd09f"/><path d="m243.74 116.953c-.51 3.76-1.55 7.35-3.04 10.7h-101.8c0-2.96 1.2-5.63 3.14-7.57 1.94-1.93 4.61-3.13 7.57-3.13z" fill="#e2b991"/></svg>