<svg viewBox="0 0 381.17 273.84" xmlns="http://www.w3.org/2000/svg"><path d="m363.46 21.53-292.91 15.59a16.82 16.82 0 0 0 -15.68 13.88l-27.87 161.2a16.81 16.81 0 0 0 17.76 19.64l221.46-15.66a5.13 5.13 0 0 1 5 2.9l24.95 51.85a5.14 5.14 0 0 0 9.7-1.38l6.6-39.57a16.81 16.81 0 0 1 16.58-14h7.5a16.81 16.81 0 0 0 16.53-13.98l27.84-160.8a16.82 16.82 0 0 0 -17.46-19.67z" fill="#243f8e"/><path d="m358.08 12.93-292.91 15.58a16.82 16.82 0 0 0 -15.68 13.93l-27.9 161.15a16.82 16.82 0 0 0 17.76 19.64l221.46-15.66a5.13 5.13 0 0 1 5 2.9l24.95 51.86a5.14 5.14 0 0 0 9.7-1.39l6.6-39.57a16.81 16.81 0 0 1 16.58-14h7.51a16.8 16.8 0 0 0 16.56-14l27.83-160.78a16.81 16.81 0 0 0 -17.46-19.66z" fill="#fff"/><path d="m339.24 2.52-292.91 15.59a16.82 16.82 0 0 0 -15.68 13.89l-27.9 161.19a16.81 16.81 0 0 0 17.76 19.64l221.84-15.69a5.13 5.13 0 0 1 4.73 2.43l25.14 40.63a5.15 5.15 0 0 0 9.4-1.63l8.06-37.57a5.14 5.14 0 0 1 5-4.06h17.6a16.8 16.8 0 0 0 16.56-14l27.86-160.76a16.82 16.82 0 0 0 -17.46-19.66z" fill="none" stroke="#03b2e8" stroke-miterlimit="10" stroke-width="5"/></svg>